<svg width="1280" height="720" viewBox="0 0 1280 720" fill="none" xmlns="http://www.w3.org/2000/svg" role="img" aria-labelledby="title desc">
  <title id="title">Hover EXIF Viewer preview</title>
  <desc id="desc">Mock preview of the Hover EXIF Viewer extension showing an image, EXIF button, and metadata modal.</desc>
  <rect width="1280" height="720" fill="#F8FAFC"/>
  <rect x="56" y="48" width="1168" height="624" rx="24" fill="white" stroke="#CBD5E1"/>
  <rect x="88" y="88" width="1104" height="40" rx="12" fill="#E2E8F0"/>
  <rect x="112" y="100" width="220" height="16" rx="8" fill="#94A3B8"/>
  <rect x="88" y="160" width="740" height="456" rx="20" fill="url(#photo)"/>
  <rect x="112" y="184" width="180" height="20" rx="10" fill="rgba(255,255,255,0.72)"/>
  <rect x="648" y="536" width="132" height="44" rx="22" fill="#111827"/>
  <rect x="650" y="538" width="128" height="40" rx="20" stroke="rgba(255,255,255,0.18)"/>
  <text x="714" y="565" text-anchor="middle" fill="white" font-family="Arial, Helvetica, sans-serif" font-size="20" font-weight="700">EXIF</text>
  <rect x="856" y="160" width="288" height="456" rx="20" fill="#E2E8F0"/>
  <rect x="884" y="196" width="220" height="20" rx="10" fill="#94A3B8"/>
  <rect x="884" y="238" width="220" height="12" rx="6" fill="#CBD5E1"/>
  <rect x="884" y="270" width="190" height="12" rx="6" fill="#CBD5E1"/>
  <rect x="884" y="302" width="210" height="12" rx="6" fill="#CBD5E1"/>
  <rect x="884" y="334" width="180" height="12" rx="6" fill="#CBD5E1"/>
  <rect x="884" y="366" width="220" height="12" rx="6" fill="#CBD5E1"/>
  <rect x="884" y="430" width="220" height="20" rx="10" fill="#94A3B8"/>
  <rect x="884" y="472" width="120" height="12" rx="6" fill="#CBD5E1"/>
  <rect x="1016" y="472" width="88" height="12" rx="6" fill="#60A5FA"/>
  <rect x="220" y="220" width="840" height="320" rx="20" fill="rgba(15,23,42,0.16)"/>
  <rect x="248" y="196" width="784" height="352" rx="24" fill="white"/>
  <rect x="248" y="196" width="784" height="64" rx="24" fill="#F8FAFC"/>
  <text x="288" y="235" fill="#0F172A" font-family="Arial, Helvetica, sans-serif" font-size="28" font-weight="700">EXIF Viewer</text>
  <rect x="912" y="212" width="88" height="32" rx="16" fill="white" stroke="#CBD5E1"/>
  <text x="956" y="233" text-anchor="middle" fill="#0F172A" font-family="Arial, Helvetica, sans-serif" font-size="16" font-weight="600">Close</text>
  <text x="288" y="292" fill="#334155" font-family="Arial, Helvetica, sans-serif" font-size="18" font-weight="700">Source</text>
  <text x="468" y="292" fill="#0F172A" font-family="Arial, Helvetica, sans-serif" font-size="18">https://images.example/photo.jpg</text>
  <text x="288" y="332" fill="#334155" font-family="Arial, Helvetica, sans-serif" font-size="18" font-weight="700">Format</text>
  <text x="468" y="332" fill="#0F172A" font-family="Arial, Helvetica, sans-serif" font-size="18">JPEG</text>
  <text x="288" y="372" fill="#334155" font-family="Arial, Helvetica, sans-serif" font-size="18" font-weight="700">Location</text>
  <text x="468" y="372" fill="#0F172A" font-family="Arial, Helvetica, sans-serif" font-size="18">35.6534804, 139.7197987</text>
  <text x="468" y="400" fill="#2563EB" font-family="Arial, Helvetica, sans-serif" font-size="18" font-weight="700">Open in Google Maps</text>
  <text x="288" y="456" fill="#334155" font-family="Arial, Helvetica, sans-serif" font-size="18" font-weight="700">LensModel</text>
  <text x="468" y="456" fill="#0F172A" font-family="Arial, Helvetica, sans-serif" font-size="18">RF24-70mm F2.8 L IS USM</text>
  <text x="288" y="496" fill="#334155" font-family="Arial, Helvetica, sans-serif" font-size="18" font-weight="700">ExposureTime</text>
  <text x="468" y="496" fill="#0F172A" font-family="Arial, Helvetica, sans-serif" font-size="18">1/125 s</text>
  <defs>
    <linearGradient id="photo" x1="88" y1="160" x2="828" y2="616" gradientUnits="userSpaceOnUse">
      <stop stop-color="#7DD3FC"/>
      <stop offset="0.5" stop-color="#86EFAC"/>
      <stop offset="1" stop-color="#FDE68A"/>
    </linearGradient>
  </defs>
</svg>
